<svg id="svg" version="1.1" width="400" height="381.90476190476187" viewBox="0 0 400 381.90476190476187" xmlns="http://www.w3.org/2000/svg" xmlns:xlink="http://www.w3.org/1999/xlink" ><g id="svgg"><path id="path0" d="M193.333 113.339 C 157.138 118.370,138.680 158.840,158.748 189.170 C 177.535 217.562,220.851 217.836,239.892 189.683 C 263.468 154.824,234.665 107.595,193.333 113.339 M208.571 120.269 C 247.828 129.325,254.384 182.140,218.485 200.140 C 190.687 214.077,158.061 194.488,156.921 163.175 C 155.924 135.788,181.989 114.136,208.571 120.269 M218.889 136.182 C 218.007 136.555,215.521 139.177,206.988 148.730 C 202.934 153.270,199.493 157.030,199.341 157.087 C 199.189 157.144,196.454 154.712,193.263 151.683 C 184.340 143.215,184.136 143.092,181.964 144.920 C 179.451 147.034,180.071 148.054,188.926 156.374 C 199.192 166.020,199.280 166.078,201.338 164.459 C 202.751 163.347,222.047 141.577,222.645 140.420 C 223.932 137.927,221.432 135.106,218.889 136.182 " stroke="none" fill="#faeb84" fill-rule="evenodd"></path><path id="path1" d="M194.158 1.192 C 193.249 1.887,192.194 3.107,191.619 4.127 L 190.635 5.873 190.546 26.183 C 190.462 45.666,190.484 46.577,191.088 48.564 C 193.548 56.657,205.689 57.096,209.332 49.222 C 210.276 47.181,210.557 8.380,209.648 5.490 C 208.308 1.230,206.202 -0.000,200.254 0.002 L 195.714 0.003 194.158 1.192 M120.115 35.066 C 117.298 36.497,115.738 39.772,116.477 42.707 C 116.794 43.968,125.464 59.489,129.499 66.020 C 133.016 71.714,139.580 72.056,142.302 66.688 C 143.764 63.803,143.461 61.975,140.734 57.221 C 134.722 46.740,129.343 37.497,128.814 36.739 C 127.240 34.480,122.907 33.647,120.115 35.066 M273.031 34.700 C 271.103 35.315,269.805 37.116,263.828 47.474 C 256.511 60.154,256.134 60.888,255.950 62.805 C 255.420 68.321,260.982 72.140,265.944 69.667 C 268.003 68.641,268.223 68.337,273.398 59.365 C 283.201 42.370,283.286 42.188,282.542 39.530 C 281.433 35.570,277.140 33.390,273.031 34.700 M193.810 77.500 C 145.418 82.107,111.585 118.213,111.597 165.238 C 111.602 186.206,116.743 201.672,129.546 219.240 C 141.591 235.769,148.087 248.814,149.346 259.001 C 150.222 266.096,153.719 269.392,160.317 269.342 C 177.944 269.209,173.220 242.821,149.581 209.365 C 137.942 192.894,134.338 184.222,133.343 170.292 C 130.605 131.976,161.205 99.223,199.683 99.287 C 242.987 99.358,274.418 140.277,263.510 182.381 C 261.222 191.212,258.183 197.048,249.587 209.119 C 225.865 242.433,221.012 269.363,238.730 269.365 C 245.217 269.365,248.930 265.633,249.846 258.193 C 251.003 248.790,257.946 234.831,268.684 220.317 C 286.895 195.704,292.130 168.271,283.971 140.193 C 272.636 101.180,233.190 73.751,193.810 77.500 M65.304 90.328 C 60.446 92.111,58.991 98.405,62.620 101.940 C 63.532 102.829,82.648 114.116,86.349 115.952 C 92.477 118.991,99.010 112.885,96.067 106.869 C 94.966 104.620,94.958 104.614,82.540 97.441 C 68.900 89.564,68.187 89.270,65.304 90.328 M328.745 90.549 C 326.435 91.388,304.711 104.189,303.742 105.283 C 299.393 110.193,304.770 118.635,310.902 116.525 C 313.761 115.542,334.353 103.784,336.150 102.109 C 341.792 96.850,336.056 87.895,328.745 90.549 M194.127 110.686 C 146.738 116.370,131.073 176.250,169.717 203.995 C 199.420 225.321,241.936 208.796,249.830 172.857 C 257.280 138.939,228.294 106.587,194.127 110.686 M207.619 113.531 C 246.815 120.119,262.346 168.448,234.286 196.508 C 204.691 226.103,153.883 207.479,150.482 165.789 C 147.908 134.226,176.292 108.265,207.619 113.531 M196.349 119.558 C 163.388 122.829,146.113 158.395,164.246 185.653 C 187.181 220.130,241.576 204.014,241.723 162.698 C 241.814 137.150,220.763 117.135,196.349 119.558 M208.772 122.972 C 239.245 130.641,249.721 167.986,227.625 190.179 C 203.704 214.203,163.159 199.422,159.668 165.405 C 156.947 138.886,182.898 116.460,208.772 122.972 M218.451 133.692 C 217.860 133.866,217.021 134.241,216.585 134.527 C 216.015 134.901,203.486 148.652,199.375 153.417 C 199.260 153.551,196.603 151.232,193.472 148.264 C 186.169 141.343,184.365 140.474,181.120 142.312 C 176.886 144.710,177.103 148.640,181.717 153.119 C 200.846 171.691,198.816 171.439,211.833 156.864 C 224.688 142.471,224.983 142.111,225.357 140.366 C 226.291 136.008,222.625 132.465,218.451 133.692 M222.198 136.850 C 224.463 139.115,224.498 139.059,211.844 153.213 C 199.659 166.842,200.006 166.607,196.510 163.623 C 192.643 160.323,181.502 149.644,181.086 148.841 C 180.142 147.014,180.727 145.223,182.582 144.264 C 184.561 143.240,185.012 143.552,194.257 152.354 L 199.274 157.130 207.949 147.429 C 219.289 134.749,219.752 134.404,222.198 136.850 M30.952 165.695 C 21.925 167.902,21.057 181.615,29.757 184.579 C 31.854 185.294,70.478 185.335,72.838 184.625 C 81.720 181.952,81.707 168.463,72.820 165.999 C 70.550 165.369,33.386 165.100,30.952 165.695 M326.687 166.042 C 318.624 168.441,317.937 180.666,325.665 184.237 C 327.681 185.169,367.175 185.489,369.866 184.595 C 377.699 181.993,378.153 170.079,370.562 166.308 L 369.048 165.556 348.889 165.495 C 329.850 165.437,328.617 165.468,326.687 166.042 M87.378 229.836 C 86.592 230.170,71.817 238.641,66.106 242.033 C 61.496 244.770,60.794 245.715,60.794 249.183 C 60.794 253.960,64.497 257.213,68.827 256.240 C 71.201 255.706,93.543 242.826,95.120 241.083 C 99.749 235.962,93.687 227.155,87.378 229.836 M306.508 229.978 C 301.782 231.707,300.759 238.758,304.774 241.929 C 306.134 243.003,325.802 254.388,328.169 255.472 C 333.016 257.691,337.642 254.870,338.303 249.293 C 338.748 245.531,338.225 245.052,325.873 237.929 C 310.453 229.037,309.806 228.771,306.508 229.978 M196.032 278.409 L 161.746 278.571 160.159 279.301 C 157.996 280.295,156.100 282.239,155.024 284.566 L 154.127 286.508 154.028 303.175 C 153.875 329.129,154.965 335.087,161.722 345.206 C 184.000 378.575,234.622 368.902,243.789 329.524 C 245.021 324.232,245.763 291.442,244.750 287.050 C 243.419 281.282,238.584 277.892,232.085 278.171 C 231.113 278.213,214.889 278.320,196.032 278.409 M223.030 306.587 C 223.724 324.573,221.698 331.962,214.374 338.155 C 201.595 348.960,181.182 342.580,177.019 326.480 C 176.054 322.748,175.283 301.331,176.085 300.529 C 176.201 300.413,186.757 300.317,199.542 300.317 L 222.788 300.317 223.030 306.587 " stroke="none" fill="#6c6cac" fill-rule="evenodd"></path><path id="path2" d="M198.656 112.928 C 199.227 112.999,200.084 112.998,200.561 112.925 C 201.038 112.853,200.571 112.795,199.524 112.797 C 198.476 112.799,198.086 112.858,198.656 112.928 M164.434 127.540 L 162.698 129.365 164.524 127.630 C 166.220 126.018,166.495 125.714,166.259 125.714 C 166.209 125.714,165.388 126.536,164.434 127.540 M233.333 126.449 C 233.333 126.503,233.798 126.967,234.365 127.480 L 235.397 128.413 234.464 127.381 C 233.595 126.419,233.333 126.203,233.333 126.449 M229.365 131.746 C 230.047 132.444,230.676 133.016,230.764 133.016 C 230.851 133.016,230.365 132.444,229.683 131.746 C 229.001 131.048,228.371 130.476,228.284 130.476 C 228.197 130.476,228.683 131.048,229.365 131.746 M189.828 148.333 C 191.144 149.735,191.429 149.987,191.429 149.749 C 191.429 149.698,190.750 149.019,189.921 148.241 L 188.413 146.825 189.828 148.333 M183.175 151.270 C 184.299 152.405,185.291 153.333,185.378 153.333 C 185.466 153.333,184.617 152.405,183.492 151.270 C 182.367 150.135,181.375 149.206,181.288 149.206 C 181.201 149.206,182.050 150.135,183.175 151.270 M195.542 153.730 C 196.858 155.132,197.143 155.384,197.143 155.145 C 197.143 155.095,196.464 154.416,195.635 153.638 L 194.127 152.222 195.542 153.730 M189.206 156.984 C 189.799 157.595,190.355 158.095,190.442 158.095 C 190.529 158.095,190.116 157.595,189.524 156.984 C 188.931 156.373,188.375 155.873,188.288 155.873 C 188.201 155.873,188.614 156.373,189.206 156.984 M193.968 161.429 C 194.561 162.040,195.117 162.540,195.204 162.540 C 195.291 162.540,194.878 162.040,194.286 161.429 C 193.693 160.817,193.137 160.317,193.050 160.317 C 192.963 160.317,193.376 160.817,193.968 161.429 M150.250 162.063 C 150.252 162.937,150.314 163.256,150.387 162.773 C 150.460 162.291,150.458 161.577,150.382 161.186 C 150.307 160.796,150.247 161.190,150.250 162.063 M202.361 163.571 L 201.429 164.603 202.460 163.671 C 203.028 163.158,203.492 162.694,203.492 162.639 C 203.492 162.394,203.230 162.610,202.361 163.571 M235.221 195.476 L 234.127 196.667 235.317 195.573 C 236.426 194.554,236.654 194.286,236.411 194.286 C 236.358 194.286,235.823 194.821,235.221 195.476 M232.837 197.857 L 231.905 198.889 232.937 197.956 C 233.504 197.444,233.968 196.979,233.968 196.925 C 233.968 196.679,233.706 196.895,232.837 197.857 M198.342 211.027 C 199.088 211.094,200.231 211.093,200.881 211.024 C 201.532 210.956,200.921 210.901,199.524 210.902 C 198.127 210.904,197.595 210.959,198.342 211.027 " stroke="none" fill="#9f9a9d" fill-rule="evenodd"></path><path id="path3" d="M164.603 196.508 C 165.463 197.381,166.238 198.095,166.325 198.095 C 166.413 198.095,165.781 197.381,164.921 196.508 C 164.061 195.635,163.286 194.921,163.198 194.921 C 163.111 194.921,163.743 195.635,164.603 196.508 " stroke="none" fill="#bcb494" fill-rule="evenodd"></path><path id="path4" d="M242.009 162.381 C 242.010 163.603,242.068 164.064,242.136 163.406 C 242.205 162.747,242.204 161.747,242.134 161.183 C 242.064 160.620,242.008 161.159,242.009 162.381 M198.333 204.674 C 198.901 204.745,199.829 204.745,200.397 204.674 C 200.964 204.604,200.500 204.546,199.365 204.546 C 198.230 204.546,197.766 204.604,198.333 204.674 " stroke="none" fill="#b1ac9c" fill-rule="evenodd"></path></g></svg>